<svg width="44" height="44" viewBox="0 0 44 44" fill="none" xmlns="http://www.w3.org/2000/svg">
<path d="M38 18.9828C38 29.5 29.5 34.5 22 43C14.5 34.5 6 29.5 6 18.9828C6 9.60344 13.1634 2 22 2C30.8366 2 38 9.60344 38 18.9828Z" fill="url(#paint0_linear_2604_13295)"/>
<path d="M28.8564 11.6875C28.8564 12.6195 28.0885 13.375 27.1422 13.375C26.1958 13.375 25.428 12.6195 25.428 11.6875C25.428 10.7555 26.1958 10 27.1422 10C28.0885 10 28.8564 10.7555 28.8564 11.6875ZM20.1711 11.9125C20.5104 11.6625 20.9603 11.6172 21.3425 11.7947L25.503 13.723C26.5458 14.2047 26.8172 15.5371 26.0494 16.3773L24.6816 17.875H28.8564C29.1992 17.875 29.5242 18.0262 29.7385 18.2863C29.9563 18.5465 30.0456 18.891 29.9777 19.2215L28.8349 24.8465C28.7099 25.4547 28.11 25.8484 27.4886 25.7289C26.8707 25.6059 26.4708 25.0152 26.5922 24.4035L27.4314 20.125H24.953C25.2601 20.8141 25.428 21.5734 25.428 22.375C25.428 25.4828 22.871 28 19.714 28C16.5581 28 14 25.4828 14 22.375C14 19.2672 16.5581 16.75 19.714 16.75C20.1104 16.75 20.4675 16.7887 20.8711 16.866L22.8067 14.9605L20.9925 14.1203L19.2569 15.4C18.7533 15.7727 18.0355 15.6707 17.6569 15.175C17.2784 14.6793 17.3805 13.9727 17.8855 13.6L20.1711 11.9125ZM19.714 25.75C21.6067 25.75 23.1424 24.2383 23.1424 22.375C23.1424 20.4801 21.6067 19 19.714 19C17.7891 19 16.2856 20.4801 16.2856 22.375C16.2856 24.2383 17.7891 25.75 19.714 25.75Z" fill="white"/>
<defs>
<linearGradient id="paint0_linear_2604_13295" x1="31.5" y1="3.49848" x2="15.0272" y2="37.9765" gradientUnits="userSpaceOnUse">
<stop stop-color="#AD68E3"/>
<stop offset="1" stop-color="#4963ED"/>
</linearGradient>
</defs>
</svg>
