<svg width="44" height="44" viewBox="0 0 44 44" fill="none" xmlns="http://www.w3.org/2000/svg">
<path fill-rule="evenodd" clip-rule="evenodd" d="M33.3235 30.981C36.2132 27.9086 38 23.6671 38 18.9828C38 9.60344 30.8366 2 22 2C13.1634 2 6 9.60344 6 18.9828C6 23.927 7.99058 28.3778 11.1675 31.4814L22.0195 43L33.3332 30.9914L33.3235 30.981Z" fill="url(#paint0_linear_1515_10254)"/>
<circle cx="22" cy="19" r="13" fill="white"/>
<path d="M28.2063 12.4892C28.2063 13.3168 27.5238 13.9877 26.6825 13.9877C25.8413 13.9877 25.1587 13.3168 25.1587 12.4892C25.1587 11.6616 25.8413 10.9907 26.6825 10.9907C27.5238 10.9907 28.2063 11.6616 28.2063 12.4892ZM20.4857 12.689C20.7873 12.467 21.1873 12.4268 21.527 12.5844L25.2254 14.2967C26.1524 14.7244 26.3936 15.9076 25.7111 16.6537L24.4952 17.9836H28.2063C28.5111 17.9836 28.8 18.1179 28.9905 18.3489C29.1841 18.5799 29.2635 18.8858 29.2032 19.1793L28.1873 24.1742C28.0762 24.7143 27.5429 25.0639 26.9905 24.9578C26.4413 24.8485 26.0857 24.3241 26.1937 23.7809L26.9397 19.9816H24.7365C25.0095 20.5935 25.1587 21.2678 25.1587 21.9796C25.1587 24.7393 22.8857 26.9745 20.0794 26.9745C17.274 26.9745 15 24.7393 15 21.9796C15 19.2199 17.274 16.9846 20.0794 16.9846C20.4317 16.9846 20.7492 17.019 21.1079 17.0877L22.8286 15.3956L21.2159 14.6495L19.673 15.7859C19.2254 16.1168 18.5873 16.0262 18.2508 15.5861C17.9143 15.1459 18.0051 14.5184 18.454 14.1875L20.4857 12.689V12.689ZM20.0794 24.9765C21.7619 24.9765 23.127 23.6341 23.127 21.9796C23.127 20.2969 21.7619 18.9826 20.0794 18.9826C18.3683 18.9826 17.0317 20.2969 17.0317 21.9796C17.0317 23.6341 18.3683 24.9765 20.0794 24.9765Z" fill="#6F5AF2"/>
<defs>
<linearGradient id="paint0_linear_1515_10254" x1="31.5" y1="3.49848" x2="15.0272" y2="37.9765" gradientUnits="userSpaceOnUse">
<stop stop-color="#AD68E3"/>
<stop offset="1" stop-color="#4963ED"/>
</linearGradient>
</defs>
</svg>
