<svg width="22" height="22" viewBox="0 0 22 22" fill="none" xmlns="http://www.w3.org/2000/svg">
<path fill-rule="evenodd" clip-rule="evenodd" d="M11.0001 0.000226314C8.08249 -0.000657959 5.28437 1.1584 3.22182 3.22181C1.15832 5.28443 -0.000671387 8.08271 -0.000671387 11.0001C-0.000671387 13.9175 1.15839 16.7159 3.22092 18.7784C5.28442 20.841 8.08249 22 11.0001 22C13.9177 22 16.715 20.8418 18.7784 18.7784C20.841 16.7158 22 13.9175 22 11.0001C21.9965 8.08339 20.8365 5.28798 18.7748 3.22521C16.7122 1.16347 13.9166 0.00271597 10.9999 0L11.0001 0.000226314ZM15.3817 7.40734L11.7877 11.0003L15.3817 14.5933C15.5991 14.8108 15.5991 15.1636 15.3817 15.382C15.1642 15.5995 14.8114 15.5995 14.5939 15.382L11 11.7881L7.40611 15.382C7.18862 15.5995 6.83587 15.5995 6.61836 15.382C6.40086 15.1645 6.40087 14.8117 6.61836 14.5942L10.2123 11.0003L6.61836 7.40732C6.40795 7.18806 6.4106 6.84149 6.62543 6.62578C6.84027 6.41094 7.18773 6.40829 7.40609 6.61871L11 10.2126L14.5939 6.61871C14.8123 6.40829 15.1597 6.41094 15.3746 6.62578C15.5894 6.8415 15.5921 7.1881 15.3817 7.40734Z" fill="#AEAEB2"/>
</svg>
