<svg width="20" height="20" viewBox="0 0 20 20" fill="none" xmlns="http://www.w3.org/2000/svg">
<path d="M15.901 9.69795L15.9017 9.69866C15.9698 9.76399 16.0002 9.85542 15.9994 9.94147C15.9985 10.0274 15.9664 10.1186 15.8955 10.1835L12.7085 13.1829L12.7084 13.1831C12.6154 13.2702 12.4937 13.2746 12.3996 13.2201C12.3081 13.1671 12.2475 13.0629 12.2475 12.9405V11.1H7.7475V13.0565C7.7475 13.18 7.68726 13.2847 7.59503 13.3375C7.50024 13.3918 7.37889 13.3856 7.28662 13.2992L7.28646 13.299L4.0998 10.2998C4.09965 10.2996 4.0995 10.2995 4.09934 10.2994C4.06645 10.269 4.04105 10.2313 4.02397 10.1898C4.00681 10.1482 3.99814 10.1032 3.99814 10.058C3.99814 10.0129 4.0068 9.96784 4.02397 9.92624C4.04106 9.88481 4.06646 9.84707 4.09937 9.81668C4.09952 9.81655 4.09966 9.81641 4.0998 9.81628L7.28899 6.81703L7.28912 6.81692C7.38207 6.7298 7.50378 6.72536 7.59794 6.77992C7.68939 6.83289 7.75 6.93711 7.75 7.05952V8.9H12.25L12.25 6.94366L12.25 6.94345M15.901 9.69795L12.6425 6.77381C12.6158 6.74882 12.5837 6.73328 12.55 6.72898C12.5162 6.72468 12.4821 6.73179 12.4516 6.74949C12.4211 6.7672 12.3953 6.79478 12.3774 6.82909C12.3594 6.86339 12.3499 6.90303 12.35 6.94345H12.25M15.901 9.69795L12.711 6.70093L12.7109 6.70082C12.67 6.66258 12.6188 6.63694 12.5626 6.62978C12.5062 6.6226 12.4502 6.63471 12.4014 6.66299C12.353 6.69108 12.3146 6.73334 12.2888 6.78269C12.263 6.83195 12.2499 6.8876 12.25 6.94345M15.901 9.69795L12.25 6.94345M2.7 0.9H1.2C1.01915 0.9 0.9 1.06896 0.9 1.2381V18.7619C0.9 18.931 1.01915 19.1 1.2 19.1H2.7C2.88085 19.1 3 18.931 3 18.7619V1.2381C3 1.06896 2.88085 0.9 2.7 0.9ZM18.8 0.9H17.3C17.1191 0.9 17 1.06896 17 1.2381V18.7619C17 18.931 17.1191 19.1 17.3 19.1H18.8C18.9809 19.1 19.1 18.931 19.1 18.7619V1.2381C19.1 1.06896 18.9809 0.9 18.8 0.9Z" fill="black" stroke="black" stroke-width="0.2"/>
</svg>
