<svg width="20" height="20" viewBox="0 0 20 20" fill="none" xmlns="http://www.w3.org/2000/svg">
<path d="M8.73176 9.44L16.6718 1.5L18.7928 3.621L17.3788 5.035L19.4998 7.156L15.9648 10.692L13.8438 8.571L10.8538 11.561C11.4043 12.6203 11.5579 13.8416 11.2866 15.0042C11.0154 16.1668 10.3373 17.1941 9.37486 17.9004C8.4124 18.6067 7.22906 18.9455 6.03862 18.8556C4.84819 18.7656 3.72918 18.2529 2.88376 17.41C2.03791 16.5655 1.52257 15.446 1.43112 14.2542C1.33966 13.0625 1.67815 11.8774 2.38524 10.9137C3.09233 9.95006 4.12123 9.27157 5.2855 9.00122C6.44977 8.73087 7.67238 8.88653 8.73176 9.44ZM7.83276 15.288C8.02378 15.1035 8.17614 14.8828 8.28096 14.6388C8.38578 14.3948 8.44095 14.1324 8.44326 13.8668C8.44557 13.6012 8.39496 13.3379 8.2944 13.0921C8.19384 12.8463 8.04533 12.623 7.85755 12.4352C7.66976 12.2474 7.44646 12.0989 7.20066 11.9984C6.95487 11.8978 6.69151 11.8472 6.42595 11.8495C6.1604 11.8518 5.89796 11.907 5.65395 12.0118C5.40994 12.1166 5.18925 12.269 5.00476 12.46C4.64044 12.8372 4.43885 13.3424 4.44341 13.8668C4.44797 14.3912 4.6583 14.8928 5.02912 15.2636C5.39994 15.6345 5.90156 15.8448 6.42595 15.8493C6.95035 15.8539 7.45555 15.6523 7.83276 15.288Z" fill="black"/>
</svg>
