<svg width="20" height="20" viewBox="0 0 20 20" fill="none" xmlns="http://www.w3.org/2000/svg">
<path d="M14.5634 4.55185C13.6373 5.40536 12.842 6.12614 12.796 6.15362C12.7401 6.18697 11.7186 6.3203 9.72077 6.55502C8.07537 6.74835 6.65558 6.92917 6.56565 6.95686C6.47573 6.98456 6.34105 7.0587 6.26636 7.12162C6.14436 7.22444 4.83881 8.91394 4.48823 9.42274C4.33806 9.64067 4.30946 9.78487 4.39985 9.86797C4.43988 9.90469 4.64982 9.92043 5.30666 9.93597C6.26018 9.95852 6.35515 9.97614 6.79225 10.2116C7.19916 10.4307 7.56775 10.8276 7.79554 11.292C7.96731 11.6422 8.04194 11.9518 8.06001 12.3894C8.08966 13.1081 7.98939 13.4034 7.31652 14.5786C7.08798 14.9779 6.8845 15.3724 6.86444 15.4553C6.81486 15.66 6.87031 15.856 7.02521 16.0235C7.13835 16.1459 8.25355 16.8731 8.46055 16.9595C8.6057 17.0201 8.76274 17.0125 8.91193 16.9377C8.99296 16.8971 9.54354 16.3722 10.3274 15.5884L11.6102 14.3056L12.8758 13.4063C13.5718 12.9117 14.1857 12.4598 14.2399 12.4021C14.383 12.2497 14.4657 12.0367 14.7533 11.0794C15.0299 10.1589 15.1388 9.91183 15.3443 9.73923C15.43 9.66732 16.0855 9.36146 17.2483 8.85088C18.6488 8.23595 19.0283 8.05624 19.053 7.99635C19.1165 7.84253 18.8 6.8397 18.4163 5.97883C18.0184 5.08623 17.6224 4.44162 16.9606 3.6097C16.6115 3.17086 16.433 3 16.3236 3C16.2689 3 15.7666 3.44285 14.5634 4.55185Z" fill="black"/>
<path d="M0.195005 10.6988C0.142457 10.763 -0.0170274 10.8833 0.00148716 11.3511C0.0352362 12.2029 0.127999 12.1765 0.308382 12.9351C0.454197 13.5483 0.525637 13.7661 0.599853 13.8235C0.658678 13.869 1.04036 13.8758 3.56065 13.8758C5.69526 13.8758 6.47508 13.8651 6.53456 13.8352C6.64212 13.7811 6.92132 13.2946 7.02058 12.9884C7.12489 12.6665 7.15015 12.0618 7.0743 11.7026C6.92078 10.9756 6.52739 10.9784 5.85606 10.7247C5.65127 10.6473 5.64805 10.6473 2.95189 10.6378C0.277232 10.6284 0.25222 10.629 0.195005 10.6988Z" fill="black"/>
<path d="M15.9337 10.7588C15.8864 10.8012 15.7802 11.0976 15.5843 11.7337C15.4295 12.2363 15.2816 12.4516 15.2556 12.5071C15.1313 12.7727 15.3487 12.5008 14.5121 13.0919C14.278 13.4176 13.6657 13.7114 13.6556 13.7448C13.6455 13.7782 13.6461 13.8213 13.6569 13.8406C13.6699 13.8638 14.2578 13.8758 16.2803 13.8758C19.2594 13.8758 19.3395 13.874 19.3989 13.8085C19.5167 13.6783 19.796 12.8027 19.8873 12.0964C19.9503 12.0925 19.9996 11.4427 20 11.0952C20.0002 10.8659 19.9895 10.8023 19.9426 10.7555C19.8903 10.7031 19.7057 10.6978 17.9433 10.6978C16.1409 10.6978 15.9967 10.7022 15.9337 10.7588Z" fill="black"/>
</svg>
