<svg width="20" height="20" viewBox="0 0 20 20" fill="none" xmlns="http://www.w3.org/2000/svg">
<path d="M8.99999 6.00001V11L13.25 13.52L14.02 12.24L10.5 10.15V6.00001H8.99999ZM19 8.00001V1.00002L16.36 3.64001C15.5271 2.80124 14.5362 2.13602 13.4445 1.68286C12.3528 1.2297 11.182 0.997607 9.99999 1.00002C8.21996 1.00002 6.47991 1.52786 4.99987 2.51679C3.51983 3.50572 2.36628 4.91133 1.68509 6.55586C1.0039 8.20039 0.82567 10.01 1.17294 11.7558C1.5202 13.5016 2.37737 15.1053 3.63604 16.364C4.89471 17.6226 6.49836 18.4798 8.24418 18.8271C9.99001 19.1743 11.7996 18.9961 13.4441 18.3149C15.0887 17.6337 16.4943 16.4802 17.4832 15.0001C18.4721 13.5201 19 11.78 19 10H17C17 13.86 13.86 17 9.99999 17C6.14 17 3 13.86 3 10C3 6.14001 6.14 3.00002 9.99999 3.00002C11.93 3.00002 13.68 3.79002 14.95 5.05001L12 8.00001H19Z" fill="#717171"/>
</svg>
