<svg width="20" height="20" viewBox="0 0 20 20" fill="none" xmlns="http://www.w3.org/2000/svg">
<path d="M17.7831 13.2704C18.4076 13.1316 19 13.6069 19 14.2466V18C19 18.5523 18.5523 19 18 19H0.999999C0.447715 19 0 18.5523 0 18V17.8198C0 17.3431 0.33646 16.9327 0.803884 16.8392L10 15L17.7831 13.2704Z" fill="black"/>
<path d="M7.73335 0.950049L7.73336 0.949983L7.73078 0.950001C6.99263 0.955301 6.40849 1.52301 6.37711 2.28814L6.37706 2.28813L6.37707 2.29054C6.38244 3.03786 6.95649 3.61612 7.7293 3.64455L7.7293 3.64461L7.73182 3.64458C8.42449 3.6352 9.03648 3.06489 9.07128 2.29243L9.07135 2.29244L9.07133 2.28983C9.06608 1.54491 8.4948 0.983806 7.73335 0.950049ZM7.30755 4.14822L7.30707 4.14869C7.21898 4.2371 7.12792 4.37605 7.06626 4.53034C7.01232 4.6653 6.97904 4.81667 6.99336 4.95969H6.97602L6.98851 5.01985L7.75148 8.69594C7.83528 9.14306 8.20411 9.42766 8.68544 9.45759L8.68543 9.45769L8.68868 9.45769C9.0687 9.45664 9.45973 9.45289 9.8549 9.4491C10.5568 9.44238 11.2718 9.43552 11.9612 9.44347L13.7775 12.6081C13.9999 13.0746 14.5662 13.1677 14.9707 12.8316L14.9708 12.8317L14.9739 12.8286C15.1719 12.6322 15.2515 12.2994 15.1157 12.0089L15.1159 12.0088L15.1137 12.0051L12.992 8.31585C12.8296 7.98146 12.5102 7.79536 12.1177 7.77608L12.1177 7.77602H12.1153H9.79747L9.54059 6.51644H11.3226C11.5351 6.53164 11.7216 6.45816 11.8441 6.321C11.9671 6.18325 12.0211 5.98605 11.9771 5.76309L11.9773 5.76305L11.976 5.75855C11.9096 5.53485 11.6802 5.33067 11.4096 5.32029L11.4096 5.32025H11.4077H9.28472C9.27023 5.24335 9.25795 5.17018 9.24619 5.10008C9.17748 4.69065 9.12639 4.38622 8.75633 4.05661L8.75642 4.05651L8.75356 4.05432C8.56395 3.90844 8.34253 3.83573 8.09169 3.83573C7.78324 3.83573 7.52079 3.93983 7.30755 4.14822ZM6.10071 5.40928L6.10067 5.40928C6.03831 5.41018 5.97625 5.41802 5.91563 5.43267L5.91552 5.43223L5.90924 5.43468C5.08321 5.75608 4.34036 6.30834 3.76473 7.07455L3.76471 7.07454L3.76392 7.07566C3.25556 7.79252 2.97176 8.65496 2.95001 9.60085H2.94999L2.95 9.60238C2.95847 10.7259 3.44069 11.8771 4.30348 12.7451L4.30446 12.746C5.14157 13.5433 6.30258 14.0238 7.54965 14.05L7.55097 14.05C8.46163 14.045 9.37134 13.776 10.2001 13.2445L10.2001 13.2445L10.2012 13.2438C10.947 12.7371 11.5312 12.0103 11.8841 11.1051C11.9499 10.9452 12.0062 10.7668 12.0529 10.5706L12.053 10.5699C12.0896 10.405 12.0619 10.2525 11.9786 10.1277C11.8957 10.0036 11.7605 9.91108 11.5887 9.85917L11.5888 9.85903L11.5851 9.85821C11.2599 9.78617 10.9714 9.9684 10.8608 10.3079L10.8605 10.3078L10.8593 10.3136C10.8324 10.4483 10.7916 10.5797 10.7375 10.7059L10.7374 10.7059L10.7367 10.7079C10.5051 11.3203 10.0735 11.8518 9.4991 12.2663C8.94262 12.6446 8.27554 12.8512 7.55031 12.8677C6.69018 12.8614 5.86072 12.5337 5.16388 11.9102C4.56762 11.3317 4.19402 10.5036 4.17397 9.6016C4.17792 8.96009 4.38447 8.32596 4.77532 7.75076C5.15767 7.22016 5.6932 6.80945 6.34724 6.54112C6.65309 6.43981 6.81479 6.12225 6.71046 5.78571L6.71067 5.78565L6.70885 5.78129C6.60585 5.53403 6.36397 5.40572 6.10071 5.40928Z" fill="black" stroke="black" stroke-width="0.1"/>
</svg>
