<svg width="16" height="16" viewBox="0 0 16 16" fill="none" xmlns="http://www.w3.org/2000/svg">
<path fill-rule="evenodd" clip-rule="evenodd" d="M2.25422 0.576248C2.54969 0.576248 2.78993 0.816482 2.78993 1.11196V9.60791H1.71851V1.11196C1.71851 0.816482 1.95874 0.576248 2.25422 0.576248ZM2.78986 14.8881C2.78986 15.1835 2.54962 15.4238 2.25414 15.4238C1.95867 15.4238 1.71845 15.1844 1.71845 14.8881V11.7466H0.535711C0.240234 11.7466 0 11.5064 0 11.2109C0 10.9305 0.218463 10.7012 0.494697 10.6794H4.18939C4.46562 10.7012 4.68409 10.9305 4.68409 11.2109C4.68409 11.5064 4.44385 11.7466 4.14838 11.7466H2.78986V14.8881ZM7.42041 14.888C7.42041 15.1835 7.66064 15.4238 7.95612 15.4238C8.2516 15.4238 8.49183 15.1835 8.49183 14.888V6.72017H7.42041V14.888ZM14.1937 14.8881C14.1937 15.1835 13.9534 15.4238 13.6579 15.4238C13.3625 15.4238 13.1222 15.1844 13.1206 14.8881V11.7466H11.8499C11.5544 11.7466 11.3142 11.5064 11.3142 11.2109C11.3142 10.9305 11.5327 10.7012 11.8089 10.6794H15.5053C15.7815 10.7012 16 10.9305 16 11.2109C16 11.5064 15.7598 11.7466 15.4643 11.7466H14.1937V14.8881ZM14.1937 1.11196C14.1937 0.816482 13.9535 0.576248 13.658 0.576248C13.3625 0.576248 13.1223 0.816482 13.1223 1.11196V9.60791H14.1937V1.11196ZM10.2981 5.11727C10.2981 5.39769 10.0822 5.62537 9.80762 5.64881H6.10453C5.8308 5.62536 5.61401 5.39769 5.61401 5.11727C5.61401 4.8218 5.85425 4.58156 6.14972 4.58156H7.42037V1.11208C7.42037 0.816605 7.6606 0.57637 7.95608 0.57637C8.25156 0.57637 8.49179 0.816605 8.49179 1.11208V4.58156H9.76243C10.0579 4.58156 10.2981 4.8218 10.2981 5.11727Z" fill="#3C3C43" fill-opacity="0.6"/>
</svg>
